<?xml version="1.0" encoding="UTF-8"?>
<svg id="_레이어_2" data-name="레이어 2" xmlns="http://www.w3.org/2000/svg" viewBox="0 0 90 90">
  <defs>
    <style>
      .cls-1 {
        fill: #00bf00;
      }

      .cls-2 {
        fill: #fff;
        stroke: #737373;
        stroke-miterlimit: 10;
      }
    </style>
  </defs>
  <g id="_레이어_1-2" data-name="레이어 1">
    <g>
      <circle class="cls-2" cx="45" cy="45" r="44.5"/>
      <path class="cls-1" d="M32.8,64.47c-2.03,0-3.69-.73-4.99-2.19s-1.85-3.18-1.64-5.17h-6.08l.79-3.65h6.81c.61-.73,1.35-1.31,2.22-1.73s1.84-.64,2.89-.64,2.02.21,2.89.64,1.61,1,2.22,1.73h12.04l5.6-24.27h-27.86l.18-.79c.2-.85.63-1.54,1.28-2.07s1.4-.79,2.25-.79h28.71l-2.37,10.34h7.6l6.93,9.25-2.37,11.98h-4.87c.2,1.99-.35,3.71-1.67,5.17s-2.99,2.19-5.02,2.19-3.69-.73-4.99-2.19-1.85-3.18-1.64-5.17h-12.23c.2,1.99-.35,3.71-1.67,5.17s-2.99,2.19-5.02,2.19ZM54.95,48.04h13.08l.36-2.01-4.87-6.51h-6.63l-1.95,8.52ZM55.01,31.43l.55-2.25-5.6,24.27.49-2.19,2.07-8.88,2.49-10.95ZM17.72,47.62l.91-3.65h13.38l-.91,3.65h-13.38ZM22.58,38.73l.91-3.65h15.82l-.91,3.65h-15.82ZM32.8,60.82c.85,0,1.57-.3,2.16-.91s.88-1.32.88-2.13c0-.85-.29-1.57-.88-2.16s-1.31-.88-2.16-.88-1.52.29-2.13.88-.91,1.31-.91,2.16.3,1.52.91,2.13,1.32.91,2.13.91ZM58.35,60.82c.85,0,1.57-.3,2.16-.91s.88-1.32.88-2.13c0-.85-.29-1.57-.88-2.16s-1.31-.88-2.16-.88-1.52.29-2.13.88-.91,1.31-.91,2.16.3,1.52.91,2.13,1.32.91,2.13.91Z"/>
    </g>
  </g>
</svg>