<?xml version="1.0" encoding="UTF-8"?>
<svg id="_레이어_2" data-name="레이어 2" xmlns="http://www.w3.org/2000/svg" viewBox="0 0 175 39">
  <defs>
    <style>
      .cls-1 {
        fill: #179bd7;
      }

      .cls-2 {
        fill: #ffc43a;
      }

      .cls-3 {
        fill: #253b80;
      }
    </style>
  </defs>
  <g id="_레이어_1-2" data-name="레이어 1">
    <rect class="cls-2" width="175" height="39"/>
    <g>
      <path class="cls-3" d="M55.22,8.18h-6.61c-.45,0-.84.33-.91.77l-2.67,16.94c-.05.33.21.64.54.64h3.15c.45,0,.84-.33.91-.78l.72-4.57c.07-.45.46-.78.91-.78h2.09c4.35,0,6.87-2.11,7.52-6.28.3-1.83.01-3.26-.84-4.27-.94-1.1-2.6-1.69-4.82-1.69ZM55.98,14.37c-.36,2.37-2.17,2.37-3.92,2.37h-1l.7-4.43c.04-.27.27-.46.54-.46h.46c1.19,0,2.32,0,2.9.68.35.41.45,1.01.32,1.84Z"/>
      <path class="cls-3" d="M74.97,14.29h-3.16c-.27,0-.5.2-.54.46l-.14.89-.22-.32c-.69-.99-2.21-1.33-3.74-1.33-3.5,0-6.48,2.65-7.07,6.36-.3,1.85.13,3.63,1.18,4.86.96,1.14,2.34,1.61,3.99,1.61,2.82,0,4.38-1.81,4.38-1.81l-.14.88c-.05.34.21.64.54.64h2.85c.45,0,.84-.33.91-.78l1.71-10.83c.05-.33-.2-.64-.54-.64ZM70.56,20.45c-.31,1.81-1.74,3.02-3.57,3.02-.92,0-1.65-.29-2.12-.85-.47-.55-.65-1.34-.5-2.22.29-1.79,1.74-3.05,3.55-3.05.9,0,1.63.3,2.11.86.48.57.67,1.36.54,2.24Z"/>
      <path class="cls-3" d="M91.82,14.29h-3.18c-.3,0-.59.15-.76.4l-4.39,6.46-1.86-6.21c-.12-.39-.48-.66-.88-.66h-3.12c-.38,0-.64.37-.52.73l3.5,10.28-3.29,4.65c-.26.37,0,.87.45.87h3.18c.3,0,.58-.15.75-.39l10.58-15.27c.25-.37,0-.86-.45-.86Z"/>
      <path class="cls-1" d="M102.35,8.18h-6.61c-.45,0-.84.33-.91.77l-2.67,16.94c-.05.33.21.64.54.64h3.39c.31,0,.58-.23.63-.54l.76-4.8c.07-.45.46-.78.91-.78h2.09c4.35,0,6.87-2.11,7.52-6.28.3-1.83.01-3.26-.84-4.27-.94-1.1-2.6-1.69-4.81-1.69ZM103.11,14.37c-.36,2.37-2.17,2.37-3.92,2.37h-1l.7-4.43c.04-.27.27-.46.54-.46h.46c1.19,0,2.32,0,2.9.68.35.41.45,1.01.32,1.84Z"/>
      <path class="cls-1" d="M122.1,14.29h-3.16c-.27,0-.5.2-.54.46l-.14.89-.22-.32c-.69-.99-2.21-1.33-3.74-1.33-3.5,0-6.48,2.65-7.06,6.36-.3,1.85.13,3.63,1.18,4.86.97,1.14,2.34,1.61,3.99,1.61,2.82,0,4.38-1.81,4.38-1.81l-.14.88c-.05.34.21.64.54.64h2.85c.45,0,.84-.33.91-.78l1.71-10.83c.05-.33-.21-.64-.55-.64ZM117.69,20.45c-.3,1.81-1.74,3.02-3.57,3.02-.92,0-1.65-.29-2.12-.85-.47-.55-.64-1.34-.5-2.22.29-1.79,1.74-3.05,3.55-3.05.9,0,1.63.3,2.11.86.48.57.68,1.36.54,2.24Z"/>
      <path class="cls-1" d="M125.83,8.65l-2.71,17.26c-.05.33.21.64.54.64h2.73c.45,0,.84-.33.91-.78l2.67-16.94c.05-.33-.21-.64-.54-.64h-3.05c-.27,0-.5.2-.54.47Z"/>
    </g>
  </g>
</svg>