<?xml version="1.0" encoding="UTF-8"?>
<svg id="_레이어_2" data-name="레이어 2" xmlns="http://www.w3.org/2000/svg" viewBox="0 0 90 90">
  <defs>
    <style>
      .cls-1 {
        fill: #fff;
        stroke: #737373;
        stroke-miterlimit: 10;
      }
    </style>
  </defs>
  <g id="_레이어_1-2" data-name="레이어 1">
    <g>
      <circle class="cls-1" cx="45" cy="45" r="44.5"/>
      <path d="M38.94,40.88l6.06-3.03,6.06,3.03v-14.07h-12.13v14.07ZM32.87,57.13v-4.85h12.13v4.85h-12.13ZM26.81,66.83c-.97,0-1.82-.36-2.55-1.09s-1.09-1.58-1.09-2.55V26.81c0-.97.36-1.82,1.09-2.55s1.58-1.09,2.55-1.09h36.38c.97,0,1.82.36,2.55,1.09s1.09,1.58,1.09,2.55v36.38c0,.97-.36,1.82-1.09,2.55s-1.58,1.09-2.55,1.09H26.81ZM26.81,26.81v36.38V26.81ZM26.81,63.19h36.38V26.81h-8.49v19.95l-9.7-4.85-9.7,4.85v-19.95h-8.49v36.38Z"/>
    </g>
  </g>
</svg>