<?xml version="1.0" encoding="UTF-8"?>
<svg id="_레이어_2" data-name="레이어 2" xmlns="http://www.w3.org/2000/svg" viewBox="0 0 175 39">
  <defs>
    <style>
      .cls-1 {
        fill: #ea4335;
      }

      .cls-2 {
        fill: #fff;
      }

      .cls-3 {
        fill: #fbbc04;
      }

      .cls-4 {
        fill: #4285f4;
      }

      .cls-5 {
        fill: #34a853;
      }
    </style>
  </defs>
  <g id="_레이어_1-2" data-name="레이어 1">
    <rect width="175" height="39"/>
    <g>
      <path class="cls-2" d="M86.11,19.25v5.93h-1.91v-14.66h4.97c1.21,0,2.36.45,3.25,1.27.89.76,1.34,1.91,1.34,3.12s-.45,2.29-1.34,3.12c-.89.83-1.98,1.27-3.25,1.27l-3.06-.06h0ZM86.11,12.3v5.1h3.19c.7,0,1.4-.25,1.85-.76,1.02-.96,1.02-2.55.06-3.51l-.06-.06c-.51-.51-1.15-.83-1.85-.76h-3.19Z"/>
      <path class="cls-2" d="M98.15,14.85c1.4,0,2.49.38,3.31,1.15s1.21,1.78,1.21,3.06v6.12h-1.78v-1.4h-.06c-.76,1.15-1.85,1.72-3.12,1.72-1.08,0-2.04-.32-2.8-.96-.7-.64-1.15-1.53-1.15-2.49,0-1.02.38-1.85,1.15-2.49s1.85-.89,3.12-.89c1.15,0,2.04.19,2.74.64v-.45c0-.64-.25-1.27-.76-1.66-.51-.45-1.15-.7-1.85-.7-1.08,0-1.91.45-2.49,1.34l-1.66-1.02c1.02-1.34,2.36-1.98,4.14-1.98ZM95.73,22.11c0,.51.25.96.64,1.21.45.32.96.51,1.47.51.76,0,1.53-.32,2.1-.89.64-.57.96-1.27.96-2.04-.57-.45-1.4-.7-2.49-.7-.76,0-1.4.19-1.91.57-.51.32-.76.76-.76,1.34Z"/>
      <path class="cls-2" d="M113,15.17l-6.31,14.47h-1.91l2.36-5.03-4.14-9.37h2.04l3,7.2h.06l2.93-7.2h1.98v-.06Z"/>
      <path class="cls-4" d="M78.52,17.97c0-.57-.06-1.15-.13-1.72h-7.97v3.25h4.52c-.19,1.02-.76,1.98-1.66,2.55v2.1h2.74c1.59-1.47,2.49-3.63,2.49-6.18Z"/>
      <path class="cls-5" d="M70.43,26.19c2.29,0,4.21-.76,5.61-2.04l-2.74-2.1c-.76.51-1.72.83-2.87.83-2.17,0-4.08-1.47-4.72-3.51h-2.8v2.17c1.47,2.87,4.33,4.65,7.52,4.65Z"/>
      <path class="cls-3" d="M65.71,19.37c-.38-1.02-.38-2.17,0-3.25v-2.17h-2.8c-1.21,2.36-1.21,5.16,0,7.58l2.8-2.17Z"/>
      <path class="cls-1" d="M70.43,12.68c1.21,0,2.36.45,3.25,1.27h0l2.42-2.42c-1.53-1.4-3.57-2.23-5.61-2.17-3.19,0-6.12,1.78-7.52,4.65l2.8,2.17c.57-2.04,2.49-3.51,4.65-3.51Z"/>
    </g>
  </g>
</svg>