<?xml version="1.0" encoding="UTF-8"?>
<svg id="_레이어_2" data-name="레이어 2" xmlns="http://www.w3.org/2000/svg" xmlns:xlink="http://www.w3.org/1999/xlink" viewBox="0 0 175 39">
  <defs>
    <style>
      .cls-1 {
        fill: #fff;
      }

      .cls-1, .cls-2 {
        fill-rule: evenodd;
      }

      .cls-3 {
        fill: none;
      }

      .cls-4 {
        fill: #373e3e;
      }

      .cls-2 {
        fill: #f79c34;
      }

      .cls-5 {
        clip-path: url(#clippath);
      }
    </style>
    <clipPath id="clippath">
      <rect class="cls-3" x="33.8" y="9.2" width="107.4" height="20.6"/>
    </clipPath>
  </defs>
  <g id="_레이어_1-2" data-name="레이어 1">
    <rect class="cls-4" width="175" height="39"/>
    <g class="cls-5">
      <g>
        <path class="cls-2" d="M76.18,25.32c-3.97,2.93-9.72,4.49-14.68,4.49-6.94,0-13.2-2.57-17.93-6.84-.37-.34-.04-.79.41-.53,5.11,2.97,11.42,4.76,17.94,4.76,4.4,0,9.23-.91,13.68-2.8.67-.28,1.23.44.58.93Z"/>
        <path class="cls-2" d="M77.83,23.43c-.51-.65-3.36-.31-4.63-.15-.39.05-.45-.29-.1-.54,2.27-1.6,5.99-1.14,6.43-.6.44.54-.11,4.27-2.24,6.05-.33.27-.64.13-.49-.23.48-1.2,1.55-3.88,1.04-4.53Z"/>
        <path class="cls-1" d="M73.29,11.46v-1.55c0-.24.18-.39.39-.39h6.95c.22,0,.4.16.4.39v1.33c0,.22-.19.51-.52.98l-3.6,5.14c1.34-.03,2.75.17,3.96.85.27.15.35.38.37.61v1.65c0,.23-.25.49-.51.35-2.14-1.12-4.98-1.24-7.34.01-.24.13-.49-.13-.49-.36v-1.57c0-.25,0-.68.26-1.07l4.17-5.98h-3.63c-.22,0-.4-.16-.4-.39Z"/>
        <path class="cls-1" d="M47.94,21.15h-2.11c-.2-.01-.36-.16-.38-.36v-10.85c0-.22.18-.39.41-.39h1.97c.21,0,.37.17.38.36v1.42h.04c.51-1.37,1.48-2.01,2.78-2.01s2.15.64,2.74,2.01c.51-1.37,1.68-2.01,2.92-2.01.89,0,1.86.37,2.45,1.19.67.91.53,2.24.53,3.4v6.85c0,.22-.18.39-.41.39h-2.11c-.21-.01-.38-.18-.38-.39v-5.75c0-.46.04-1.6-.06-2.03-.16-.73-.63-.94-1.24-.94-.51,0-1.05.34-1.26.89-.22.55-.2,1.46-.2,2.08v5.75c0,.22-.18.39-.41.39h-2.11c-.21-.01-.38-.18-.38-.39v-5.75c0-1.21.2-2.99-1.3-2.99s-1.46,1.73-1.46,2.99v5.75c0,.22-.18.39-.41.39Z"/>
        <path class="cls-1" d="M87.03,11.54c-1.56,0-1.66,2.12-1.66,3.45s-.02,4.16,1.64,4.16,1.72-2.28,1.72-3.68c0-.91-.04-2.01-.32-2.88-.24-.75-.71-1.05-1.38-1.05ZM87.01,9.32c3.14,0,4.83,2.7,4.83,6.12s-1.87,5.94-4.83,5.94-4.76-2.69-4.76-6.05,1.7-6.01,4.76-6.01Z"/>
        <path class="cls-1" d="M95.92,21.15h-2.11c-.21-.01-.38-.18-.38-.39v-10.85c.01-.2.19-.35.4-.35h1.96c.18,0,.34.13.38.3v1.66h.04c.59-1.48,1.42-2.19,2.88-2.19.95,0,1.88.34,2.47,1.28.55.87.55,2.33.55,3.38v6.83c-.02.19-.2.34-.41.34h-2.12c-.2-.01-.35-.16-.38-.34v-5.89c0-1.19.14-2.92-1.32-2.92-.51,0-.99.34-1.22.87-.3.66-.34,1.32-.34,2.06v5.84c0,.22-.19.39-.41.39Z"/>
        <path class="cls-1" d="M69.88,21.12c-.14.13-.34.13-.5.05-.7-.58-.83-.85-1.21-1.41-1.16,1.18-1.98,1.54-3.49,1.54-1.78,0-3.16-1.1-3.16-3.3,0-1.72.93-2.88,2.25-3.46,1.15-.5,2.75-.6,3.98-.73v-.27c0-.5.04-1.1-.26-1.53-.26-.39-.75-.55-1.19-.55-.81,0-1.52.41-1.7,1.27-.04.19-.18.38-.37.39l-2.05-.22c-.17-.04-.37-.18-.32-.44.47-2.45,2.65-3.22,4.64-3.24h.16c1.02.01,2.32.29,3.11,1.05,1.03.96.93,2.24.93,3.64v3.29c0,.99.41,1.43.8,1.96.14.19.17.42,0,.56-.43.36-1.2,1.03-1.62,1.4h0ZM67.75,15.97c0,.82.02,1.51-.4,2.24-.34.59-.87.96-1.46.96-.81,0-1.28-.62-1.28-1.53,0-1.8,1.61-2.13,3.14-2.13v.46Z"/>
        <path class="cls-1" d="M42.16,21.12c-.14.13-.34.13-.5.05-.7-.58-.83-.85-1.21-1.41-1.16,1.18-1.98,1.54-3.49,1.54-1.78,0-3.16-1.1-3.16-3.3,0-1.72.93-2.88,2.25-3.46,1.15-.5,2.75-.6,3.97-.73v-.27c0-.5.04-1.1-.26-1.53-.26-.39-.75-.55-1.19-.55-.81,0-1.52.41-1.7,1.27-.04.19-.18.38-.37.39l-2.05-.22c-.17-.04-.37-.18-.32-.44.46-2.45,2.65-3.22,4.64-3.24h.16c1.02.01,2.32.29,3.11,1.05,1.03.96.93,2.24.93,3.64v3.29c0,.99.41,1.43.8,1.96.13.19.17.42,0,.56-.43.36-1.2,1.03-1.62,1.4h0ZM40.03,15.97c0,.82.02,1.51-.4,2.24-.34.59-.87.96-1.46.96-.81,0-1.28-.62-1.28-1.53,0-1.8,1.62-2.13,3.14-2.13v.46Z"/>
        <path class="cls-1" d="M131.01,25.04v-.8c0-.23.11-.38.35-.37.44.06,1.07.13,1.51.03.58-.12.99-.53,1.24-1.09.35-.79.58-1.43.72-1.85l-4.4-10.9c-.07-.18-.1-.53.27-.53h1.54c.29,0,.41.19.48.37l3.19,8.85,3.04-8.85c.06-.18.19-.37.48-.37h1.45c.37,0,.35.34.27.53l-4.36,11.24c-.56,1.5-1.32,3.88-3.01,4.29-.85.22-1.92.14-2.55-.12-.16-.08-.22-.29-.22-.43Z"/>
        <path class="cls-1" d="M128.96,20.48c0,.2-.17.37-.37.37h-1.08c-.23,0-.39-.17-.42-.37l-.11-.74c-.5.42-1.11.79-1.77,1.05-1.28.5-2.75.58-3.99-.19-.9-.55-1.38-1.63-1.38-2.75,0-.86.27-1.72.86-2.34.79-.85,1.93-1.27,3.3-1.27.83,0,2.02.1,2.89.38v-1.49c0-1.51-.64-2.16-2.31-2.16-1.28,0-2.26.19-3.63.62-.22,0-.35-.16-.35-.36v-.85c0-.2.17-.4.36-.46.97-.42,2.35-.69,3.82-.74,1.91,0,4.19.43,4.19,3.37v7.91ZM126.88,18.32v-2.24c-.73-.2-1.93-.28-2.4-.28-.74,0-1.54.17-1.96.63-.31.33-.46.81-.46,1.27,0,.6.21,1.19.69,1.49.56.38,1.43.33,2.24.1.78-.22,1.52-.62,1.89-.97Z"/>
        <path class="cls-1" d="M112.97,11.02c2.41,0,3.06,1.89,3.06,4.06.01,1.46-.25,2.76-1.01,3.51-.57.56-1.2.71-2.15.71-.85,0-1.96-.44-2.79-1.06v-6.19c.87-.67,1.97-1.03,2.89-1.03ZM109.71,25.43h-1.45c-.2,0-.37-.17-.37-.37v-15.13c0-.2.17-.37.37-.37h1.11c.23,0,.39.17.42.37l.12.79c1.04-.92,2.38-1.52,3.66-1.52,3.58,0,4.75,2.95,4.75,6.01,0,3.28-1.8,5.91-4.84,5.91-1.28,0-2.48-.47-3.4-1.29v5.23c0,.2-.17.37-.37.37Z"/>
      </g>
    </g>
  </g>
</svg>