<?xml version="1.0" encoding="UTF-8"?>
<svg id="_레이어_2" data-name="레이어 2" xmlns="http://www.w3.org/2000/svg" viewBox="0 0 90 90">
  <defs>
    <style>
      .cls-1 {
        fill: #00bf00;
      }

      .cls-2 {
        fill: #fff;
        stroke: #737373;
        stroke-miterlimit: 10;
      }
    </style>
  </defs>
  <g id="_레이어_1-2" data-name="레이어 1">
    <g>
      <circle class="cls-2" cx="45" cy="45" r="44.5"/>
      <path class="cls-1" d="M29.41,64.47c-2,0-3.69-.7-5.09-2.1-1.4-1.4-2.1-3.1-2.1-5.09h-4.02v-28.09c0-.97.37-1.83,1.1-2.56s1.58-1.1,2.56-1.1h35.28v10.18h6.4l8.29,11.03v10.54h-4.33c0,2-.7,3.69-2.09,5.09-1.4,1.4-3.09,2.1-5.09,2.1s-3.69-.7-5.09-2.1c-1.4-1.4-2.1-3.1-2.1-5.09h-16.51c0,1.99-.7,3.69-2.09,5.09s-3.09,2.1-5.09,2.1ZM29.4,60.81c.97,0,1.81-.35,2.5-1.04.69-.69,1.04-1.52,1.04-2.5s-.35-1.81-1.04-2.5c-.69-.69-1.52-1.04-2.5-1.04s-1.81.35-2.5,1.04-1.04,1.52-1.04,2.5.35,1.81,1.04,2.5,1.52,1.04,2.5,1.04ZM21.85,53.62h1.34c.69-1.1,1.56-1.97,2.62-2.62,1.06-.65,2.24-.97,3.53-.97s2.49.34,3.56,1.01,1.96,1.53,2.65,2.59h17.91v-24.43h-31.62v24.43ZM60.29,60.81c.97,0,1.81-.35,2.5-1.04s1.04-1.52,1.04-2.5-.35-1.81-1.04-2.5-1.52-1.04-2.5-1.04-1.81.35-2.5,1.04-1.04,1.52-1.04,2.5.35,1.81,1.04,2.5,1.52,1.04,2.5,1.04ZM57.12,48.38h11.33l-6.76-9.02h-4.57v9.02Z"/>
    </g>
  </g>
</svg>