<?xml version="1.0" encoding="UTF-8"?>
<svg id="_레이어_2" data-name="레이어 2" xmlns="http://www.w3.org/2000/svg" viewBox="0 0 92.42 21">
  <defs>
    <style>
      .cls-1 {
        fill: #fff;
      }

      .cls-2 {
        isolation: isolate;
      }
    </style>
  </defs>
  <g id="_레이어_1-2" data-name="레이어 1">
    <g>
      <g id="uuid-4a60995e-890b-4510-b352-452f3b5fe240" data-name=" 레이어 1-2">
        <g>
          <path d="M13.76,21c-.68,0-1.32-.33-1.71-.89L.37,3.26C-.07,2.63-.12,1.8.24,1.11.6.43,1.31,0,2.08,0h23.35c.77,0,1.48.43,1.84,1.11.36.68.31,1.51-.13,2.15l-11.68,16.84c-.39.56-1.03.89-1.71.89h0,0Z"/>
          <polygon class="cls-1" points="2.08 2.08 25.43 2.08 13.76 18.92 2.08 2.08"/>
          <polygon points="7.37 4.85 20.14 4.85 13.76 14.06 7.37 4.85"/>
          <g class="cls-2">
            <path class="cls-1" d="M12.32,8.29l-.03-.03.68-.56c.08-.06.2-.15.37-.25s.31-.16.43-.16c.06,0,.11.02.16.07s.07.11.07.18c0,.1-.03.22-.1.36-.07.14-.23.32-.48.53s-.4.36-.46.42-.08.12-.08.17c0,.1.07.15.2.15.18,0,.44-.09.78-.27s.62-.37.84-.57c.11-.29.25-.54.42-.73.16-.19.27-.29.33-.29.05,0,.08.03.08.09,0,.08-.1.23-.28.46-.19.23-.35.39-.48.49,0,.13.07.2.19.2s.28-.09.49-.28l.03.03-.16.13c-.14.11-.26.16-.36.16-.12,0-.21-.06-.26-.19-.29.23-.59.43-.91.59s-.55.24-.69.24c-.07,0-.14-.03-.22-.09s-.11-.14-.11-.26c0-.12.04-.24.12-.37s.26-.31.56-.55.44-.4.44-.5c0-.03-.02-.06-.05-.09s-.07-.05-.11-.05c-.15,0-.44.18-.89.55l-.5.42h0Z"/>
          </g>
        </g>
      </g>
      <g>
        <path d="M40.17,18.83l-6.67-16.66h2.45l5.5,14.09h-.89l5.54-14.09h2.42l-6.72,16.66h-1.63Z"/>
        <path d="M51.24,18.83V2.17h2.26v16.66h-2.26ZM52.77,11.24v-2.06h9.77v2.06h-9.77ZM61.99,18.83V2.17h2.26v16.66h-2.26Z"/>
        <path d="M66.93,4.24v-2.06h13.56v2.06h-13.56ZM72.6,18.83V2.65h2.26v16.18h-2.26Z"/>
        <path d="M86.78,19.07c-1.31,0-2.43-.24-3.36-.72-.93-.48-1.75-1.18-2.47-2.09l1.54-1.54c.53.74,1.14,1.29,1.82,1.67.69.38,1.54.56,2.54.56s1.79-.22,2.39-.65.9-1.02.9-1.78c0-.62-.14-1.13-.43-1.51-.29-.38-.68-.7-1.16-.95-.49-.25-1.02-.47-1.6-.67-.58-.2-1.15-.42-1.73-.65-.58-.23-1.1-.52-1.58-.86-.48-.34-.87-.8-1.16-1.36-.3-.56-.44-1.26-.44-2.11,0-.94.23-1.75.68-2.41.46-.66,1.08-1.18,1.87-1.54s1.68-.54,2.68-.54c1.09,0,2.06.21,2.93.64.86.42,1.57.98,2.11,1.67l-1.54,1.54c-.5-.58-1.03-1.01-1.6-1.3s-1.22-.43-1.96-.43c-.9,0-1.61.2-2.14.59s-.79.94-.79,1.64c0,.56.15,1.01.44,1.36s.68.64,1.16.88c.48.24,1.01.46,1.6.66.58.2,1.16.42,1.74.66.58.24,1.1.54,1.58.91s.87.84,1.16,1.43c.3.58.44,1.32.44,2.2,0,1.47-.51,2.62-1.52,3.46s-2.39,1.25-4.12,1.25Z"/>
      </g>
    </g>
  </g>
</svg>