<?xml version="1.0" encoding="UTF-8"?>
<svg id="_레이어_2" data-name="레이어 2" xmlns="http://www.w3.org/2000/svg" viewBox="0 0 112.55 85.92">
  <defs>
    <style>
      .cls-1 {
        fill: #fff;
      }

      .cls-2 {
        isolation: isolate;
      }
    </style>
  </defs>
  <g id="_레이어_1-2" data-name="레이어 1">
    <g>
      <path d="M56.28,85.91c-2.79,0-5.4-1.37-6.99-3.66L1.52,13.35C-.29,10.75-.5,7.36.97,4.56,2.44,1.76,5.34,0,8.5,0h95.55c3.16,0,6.07,1.76,7.53,4.56,1.47,2.8,1.26,6.19-.55,8.79l-47.78,68.91c-1.59,2.29-4.2,3.66-6.99,3.66h.02Z"/>
      <polygon class="cls-1" points="8.5 8.5 104.06 8.5 56.28 77.41 8.5 8.5"/>
      <polygon points="30.16 19.84 82.4 19.84 56.28 57.51 30.16 19.84"/>
      <g class="cls-2">
        <path class="cls-1" d="M50.39,33.93l-.14-.14,2.77-2.3c.31-.26.81-.61,1.5-1.04.69-.43,1.28-.64,1.76-.64.23,0,.45.09.65.27.2.18.3.43.3.74,0,.42-.14.91-.42,1.47-.28.57-.93,1.29-1.96,2.18-1.03.89-1.65,1.46-1.87,1.71s-.32.49-.32.69c0,.4.27.61.8.61.72,0,1.78-.37,3.18-1.12s2.55-1.53,3.44-2.35c.47-1.2,1.04-2.19,1.71-2.99.67-.79,1.12-1.19,1.36-1.19.21,0,.31.12.31.37,0,.33-.39.96-1.16,1.9-.77.94-1.44,1.61-1.98,2,.04.55.3.82.78.82s1.15-.38,2.01-1.13l.14.14-.66.53c-.56.44-1.05.66-1.48.66-.51,0-.87-.26-1.07-.78-1.17.96-2.41,1.77-3.72,2.43s-2.25.99-2.82.99c-.29,0-.58-.12-.88-.35-.3-.23-.45-.59-.45-1.05,0-.5.16-1,.49-1.51.33-.51,1.08-1.26,2.28-2.23s1.79-1.65,1.79-2.04c0-.12-.07-.24-.21-.37s-.28-.2-.44-.2c-.6,0-1.82.74-3.65,2.23l-2.03,1.7Z"/>
      </g>
    </g>
  </g>
</svg>