<?xml version="1.0" encoding="UTF-8"?>
<svg id="_레이어_2" data-name="레이어 2" xmlns="http://www.w3.org/2000/svg" xmlns:xlink="http://www.w3.org/1999/xlink" viewBox="0 0 22.6 17.41">
  <defs>
    <style>
      .cls-1 {
        fill: url(#_무제_그라디언트_5);
      }

      .cls-2 {
        fill: #fff;
      }

      .cls-3 {
        fill: url(#_무제_그라디언트_14);
      }

      .cls-4 {
        fill: url(#_무제_그라디언트_14-3);
      }

      .cls-5 {
        fill: url(#_무제_그라디언트_4);
      }

      .cls-6 {
        fill: url(#_무제_그라디언트_14-2);
      }
    </style>
    <linearGradient id="_무제_그라디언트_14" data-name="무제 그라디언트 14" x1="-491.37" y1="276.29" x2="-488.34" y2="276.29" gradientTransform="translate(1022.08 575.85) scale(2.05 -2.05)" gradientUnits="userSpaceOnUse">
      <stop offset="0" stop-color="#007940"/>
      <stop offset=".23" stop-color="#00873f"/>
      <stop offset=".74" stop-color="#40a737"/>
      <stop offset="1" stop-color="#5cb531"/>
    </linearGradient>
    <linearGradient id="_무제_그라디언트_14-2" data-name="무제 그라디언트 14" x1="-491.37" y1="276.76" x2="-488.35" y2="276.76" xlink:href="#_무제_그라디언트_14"/>
    <linearGradient id="_무제_그라디언트_14-3" data-name="무제 그라디언트 14" x1="-491.37" y1="277.27" x2="-488.34" y2="277.27" xlink:href="#_무제_그라디언트_14"/>
    <linearGradient id="_무제_그라디언트_4" data-name="무제 그라디언트 4" x1="-498.16" y1="276.76" x2="-495.08" y2="276.76" gradientTransform="translate(1022.08 575.85) scale(2.05 -2.05)" gradientUnits="userSpaceOnUse">
      <stop offset="0" stop-color="#1f286f"/>
      <stop offset=".48" stop-color="#004e94"/>
      <stop offset=".83" stop-color="#0066b1"/>
      <stop offset="1" stop-color="#006fbc"/>
    </linearGradient>
    <linearGradient id="_무제_그라디언트_5" data-name="무제 그라디언트 5" x1="-494.78" y1="276.76" x2="-491.79" y2="276.76" gradientTransform="translate(1022.08 575.85) scale(2.05 -2.05)" gradientUnits="userSpaceOnUse">
      <stop offset="0" stop-color="#6c2c2f"/>
      <stop offset=".17" stop-color="#882730"/>
      <stop offset=".57" stop-color="#be1833"/>
      <stop offset=".86" stop-color="#dc0436"/>
      <stop offset="1" stop-color="#e60039"/>
    </linearGradient>
  </defs>
  <g id="_레이어_1-2" data-name="레이어 1">
    <g id="g6321">
      <g id="g6323">
        <path id="path6325" class="cls-2" d="M22.6,13.9c0,1.93-1.57,3.51-3.51,3.51H0V3.51C0,1.57,1.57,0,3.51,0h19.09v13.9h0Z"/>
        <g id="g6327">
          <path id="path6338" class="cls-3" d="M16.38,10.33h1.45s.14-.01.18-.01c.28-.06.51-.3.51-.65s-.23-.58-.51-.65c-.04-.01-.12-.01-.18-.01h-1.45v1.33h0Z"/>
          <path id="path6349" class="cls-6" d="M17.67,1.17c-1.38,0-2.51,1.12-2.51,2.51v2.61h3.55c.08,0,.18,0,.25.01.8.04,1.4.46,1.4,1.17,0,.57-.4,1.05-1.15,1.15v.03c.82.06,1.44.51,1.44,1.22,0,.76-.69,1.26-1.6,1.26h-3.9v5.11h3.69c1.38,0,2.51-1.12,2.51-2.51V1.17h-3.67,0Z"/>
          <path id="path6360" class="cls-4" d="M18.35,7.65c0-.33-.23-.55-.51-.59-.03,0-.1-.01-.14-.01h-1.31v1.22h1.31s.12,0,.14-.01c.28-.04.51-.26.51-.59Z"/>
        </g>
        <path id="path6371" class="cls-5" d="M3.77,1.17c-1.38,0-2.51,1.12-2.51,2.51v6.2c.7.35,1.44.57,2.17.57.87,0,1.34-.52,1.34-1.24v-2.93h2.16v2.92c0,1.13-.7,2.06-3.09,2.06-1.45,0-2.58-.32-2.58-.32v5.29h3.69c1.38,0,2.51-1.12,2.51-2.51V1.17s-3.67,0-3.67,0Z"/>
        <path id="path6384" class="cls-1" d="M10.72,1.17c-1.38,0-2.51,1.12-2.51,2.51v3.29c.64-.54,1.74-.88,3.52-.8.95.04,1.98.3,1.98.3v1.06c-.51-.26-1.12-.5-1.91-.55-1.35-.1-2.17.57-2.17,1.73s.82,1.84,2.17,1.73c.79-.06,1.4-.3,1.91-.55v1.06s-1.01.26-1.98.3c-1.78.08-2.89-.26-3.52-.8v5.8h3.69c1.38,0,2.51-1.12,2.51-2.51V1.17s-3.69,0-3.69,0Z"/>
      </g>
    </g>
  </g>
</svg>