<?xml version="1.0" encoding="UTF-8"?>
<svg id="_레이어_2" data-name="레이어 2" xmlns="http://www.w3.org/2000/svg" viewBox="0 0 47 15.18">
  <defs>
    <style>
      .cls-1 {
        fill: #1a1f71;
      }
    </style>
  </defs>
  <g id="_레이어_1-2" data-name="레이어 1">
    <g id="g4155">
      <g id="g4161">
        <path id="path4163" class="cls-1" d="M23.27.27l-3.14,14.68h-3.8L19.47.27h3.8ZM39.25,9.75l2-5.51,1.15,5.51s-3.15,0-3.15,0ZM43.49,14.95h3.51L43.93.27h-3.24c-.73,0-1.35.42-1.62,1.08l-5.7,13.6h3.99l.79-2.19h4.87s.46,2.19.46,2.19ZM33.57,10.16c.02-3.87-5.36-4.09-5.32-5.82.01-.53.51-1.09,1.61-1.23.54-.07,2.04-.13,3.75.66l.67-3.11c-.91-.33-2.09-.65-3.55-.65-3.75,0-6.4,1.99-6.42,4.85-.02,2.11,1.89,3.29,3.32,4,1.48.72,1.98,1.18,1.97,1.82-.01.98-1.18,1.42-2.27,1.44-1.91.03-3.02-.52-3.9-.93l-.69,3.22c.89.41,2.53.76,4.22.78,3.99,0,6.6-1.97,6.61-5.02M17.84.27l-6.15,14.68h-4.01L4.65,3.23c-.18-.72-.34-.99-.9-1.29-.91-.5-2.42-.96-3.75-1.25l.09-.43h6.46c.82,0,1.56.55,1.75,1.5l1.6,8.5L13.85.27h3.99Z"/>
      </g>
    </g>
  </g>
</svg>