<?xml version="1.0" encoding="UTF-8"?>
<svg id="_레이어_2" data-name="레이어 2" xmlns="http://www.w3.org/2000/svg" viewBox="0 0 24 14.83">
  <defs>
    <style>
      .cls-1 {
        fill: #eb001b;
      }

      .cls-2 {
        fill: #ff5f00;
      }

      .cls-3 {
        fill: #f79e1b;
      }
    </style>
  </defs>
  <g id="_레이어_1-2" data-name="레이어 1">
    <path class="cls-1" d="M7.39,0C3.3.01-.01,3.34,0,7.44c.01,4.1,3.34,7.41,7.44,7.39,4.1-.01,7.41-3.34,7.39-7.44C14.82,3.31,11.52.01,7.44,0h-.05Z"/>
    <path class="cls-3" d="M16.56,0c-4.1.01-7.41,3.34-7.39,7.44.01,4.1,3.34,7.41,7.44,7.39,4.1-.01,7.41-3.34,7.39-7.44-.01-4.08-3.31-7.38-7.39-7.39h-.05Z"/>
    <path class="cls-2" d="M12,1.58c-3.22,2.53-3.78,7.19-1.25,10.41.37.47.79.89,1.25,1.25,3.22-2.53,3.78-7.19,1.25-10.41-.37-.47-.79-.89-1.25-1.25"/>
  </g>
</svg>