<?xml version="1.0" encoding="UTF-8"?>
<svg id="_레이어_2" data-name="레이어 2" xmlns="http://www.w3.org/2000/svg" viewBox="0 0 47 30">
  <defs>
    <style>
      .cls-1 {
        fill: #f9f9f9;
      }

      .cls-2 {
        fill: #179bd7;
      }

      .cls-3 {
        fill: #253b80;
      }
    </style>
  </defs>
  <g id="_레이어_1-2" data-name="레이어 1">
    <rect class="cls-1" width="47" height="30"/>
    <g>
      <path class="cls-3" d="M8.59,9.77h-3.05c-.21,0-.39.15-.42.36l-1.23,7.83c-.02.15.1.29.25.29h1.46c.21,0,.39-.15.42-.36l.33-2.11c.03-.21.21-.36.42-.36h.97c2.01,0,3.17-.97,3.47-2.9.14-.84,0-1.51-.39-1.97-.43-.51-1.2-.78-2.22-.78ZM8.94,12.63c-.17,1.1-1,1.1-1.81,1.1h-.46l.32-2.05c.02-.12.13-.21.25-.21h.21c.55,0,1.07,0,1.34.31.16.19.21.47.15.85Z"/>
      <path class="cls-3" d="M17.71,12.6h-1.46c-.12,0-.23.09-.25.21l-.06.41-.1-.15c-.32-.46-1.02-.61-1.73-.61-1.62,0-2.99,1.22-3.26,2.94-.14.86.06,1.67.54,2.25.45.52,1.08.74,1.84.74,1.3,0,2.02-.84,2.02-.84l-.07.41c-.02.16.1.29.25.29h1.32c.21,0,.39-.15.42-.36l.79-5c.02-.15-.09-.29-.25-.29ZM15.67,15.44c-.14.84-.8,1.4-1.65,1.4-.42,0-.76-.14-.98-.39-.22-.26-.3-.62-.23-1.03.13-.83.81-1.41,1.64-1.41.42,0,.75.14.97.4.22.26.31.63.25,1.03Z"/>
      <path class="cls-3" d="M25.5,12.6h-1.47c-.14,0-.27.07-.35.19l-2.03,2.98-.86-2.87c-.05-.18-.22-.3-.41-.3h-1.44c-.18,0-.3.17-.24.34l1.62,4.75-1.52,2.15c-.12.17,0,.4.21.4h1.47c.14,0,.27-.07.35-.18l4.89-7.05c.12-.17,0-.4-.21-.4Z"/>
      <path class="cls-2" d="M30.36,9.77h-3.05c-.21,0-.39.15-.42.36l-1.23,7.83c-.02.15.1.29.25.29h1.57c.15,0,.27-.11.29-.25l.35-2.22c.03-.21.21-.36.42-.36h.97c2.01,0,3.17-.97,3.47-2.9.14-.84,0-1.51-.39-1.97-.43-.51-1.2-.78-2.22-.78ZM30.71,12.63c-.17,1.1-1,1.1-1.81,1.1h-.46l.32-2.05c.02-.12.13-.21.25-.21h.21c.55,0,1.07,0,1.34.31.16.19.21.47.15.85Z"/>
      <path class="cls-2" d="M39.48,12.6h-1.46c-.13,0-.23.09-.25.21l-.06.41-.1-.15c-.32-.46-1.02-.61-1.73-.61-1.62,0-2.99,1.22-3.26,2.94-.14.86.06,1.67.54,2.25.45.52,1.08.74,1.84.74,1.3,0,2.02-.84,2.02-.84l-.07.41c-.02.16.1.29.25.29h1.32c.21,0,.39-.15.42-.36l.79-5c.02-.15-.1-.29-.25-.29ZM37.45,15.44c-.14.84-.8,1.4-1.65,1.4-.42,0-.76-.14-.98-.39-.22-.26-.3-.62-.23-1.03.13-.83.81-1.41,1.64-1.41.42,0,.75.14.97.4.22.26.31.63.25,1.03Z"/>
      <path class="cls-2" d="M41.21,9.99l-1.25,7.97c-.02.15.1.29.25.29h1.26c.21,0,.39-.15.42-.36l1.24-7.83c.02-.15-.1-.29-.25-.29h-1.41c-.12,0-.23.09-.25.22Z"/>
    </g>
  </g>
</svg>