<?xml version="1.0" encoding="UTF-8"?>
<svg id="_레이어_2" data-name="레이어 2" xmlns="http://www.w3.org/2000/svg" viewBox="0 0 47 30">
  <defs>
    <style>
      .cls-1 {
        fill: #016fd0;
      }

      .cls-2 {
        fill: #fff;
      }

      .cls-3 {
        fill: #f9f9f9;
      }
    </style>
  </defs>
  <g id="_레이어_1-2" data-name="레이어 1">
    <rect class="cls-3" width="47" height="30"/>
    <g id="layer1">
      <path id="path3078" class="cls-1" d="M11.09,2.62h24.77v13.37l-1.23,1.92,1.23,1.7v7.78H11.09v-12.6l.77-.88-.77-.84V2.62Z"/>
      <path id="path3082" class="cls-2" d="M15.89,19.87v-3.89h4.12l.44.58.46-.58h14.94v3.62s-.39.26-.84.27h-8.27l-.5-.61v.61h-1.63v-1.05s-.22.15-.7.15h-.56v.9h-2.47l-.44-.59-.45.59h-4.09Z"/>
      <path id="path3080" class="cls-2" d="M11.09,13.06l.93-2.16h1.61l.53,1.21v-1.21h2l.31.88.3-.88h8.96v.44s.47-.44,1.25-.44h2.91s.52,1.21.52,1.21v-1.21h1.67l.46.69v-.69h1.69v3.89h-1.69l-.44-.69v.69h-2.45l-.25-.61h-.66l-.24.61h-1.66c-.67,0-1.09-.43-1.09-.43v.43h-2.51l-.5-.61v.61h-9.33l-.25-.61h-.66l-.24.61h-1.15v-1.72Z"/>
      <path id="path3046" class="cls-1" d="M12.34,11.37l-1.25,2.91h.82l.23-.58h1.34l.23.58h.83l-1.25-2.91h-.95ZM12.81,12.05l.41,1.02h-.82l.41-1.02Z"/>
      <path id="path3048" class="cls-1" d="M14.63,14.28v-2.91h1.16s.67,1.88.67,1.88l.66-1.88h1.15v2.91h-.73v-2.15l-.77,2.15h-.64l-.77-2.15v2.15h-.73Z"/>
      <path id="path3050" class="cls-1" d="M18.77,14.28v-2.91h2.38v.65h-1.64v.5h1.6v.61h-1.6v.52h1.64v.63h-2.38Z"/>
      <path id="path3052" class="cls-1" d="M21.56,11.37v2.91h.73v-1.03h.31l.87,1.03h.89l-.96-1.07c.39-.03.8-.37.8-.89,0-.61-.48-.94-1.02-.94h-1.62ZM22.29,12.02h.83c.2,0,.34.16.34.31,0,.19-.19.31-.33.31h-.84v-.61h0Z"/>
      <path id="path3054" class="cls-1" d="M25.24,14.28h-.74v-2.91h.74v2.91Z"/>
      <path id="path3056" class="cls-1" d="M27,14.28h-.16c-.78,0-1.25-.61-1.25-1.44s.47-1.47,1.45-1.47h.8v.69h-.83c-.4,0-.68.31-.68.79,0,.56.32.8.79.8h.19l-.31.64Z"/>
      <path id="path3058" class="cls-1" d="M28.59,11.37l-1.25,2.91h.82l.23-.58h1.34l.23.58h.83l-1.25-2.91h-.95ZM29.05,12.05l.41,1.02h-.82l.41-1.02h0Z"/>
      <path id="path3060" class="cls-1" d="M30.87,14.28v-2.91h.93l1.18,1.83v-1.83h.73v2.91h-.9l-1.21-1.88v1.88h-.73Z"/>
      <path id="path3062" class="cls-1" d="M16.39,19.38v-2.91h2.38v.65h-1.64v.5h1.6v.61h-1.6v.52h1.64v.63h-2.38Z"/>
      <path id="path3064" class="cls-1" d="M28.03,19.38v-2.91h2.38v.65h-1.64v.5h1.59v.61h-1.59v.52h1.64v.63h-2.38Z"/>
      <path id="path3066" class="cls-1" d="M18.86,19.38l1.16-1.44-1.18-1.47h.92l.71.91.71-.91h.88l-1.17,1.46,1.16,1.46h-.92l-.68-.9-.67.9h-.9Z"/>
      <path id="path3068" class="cls-1" d="M22.12,16.47v2.91h.75v-.92h.77c.65,0,1.14-.34,1.14-1.01,0-.55-.39-.98-1.05-.98h-1.61ZM22.87,17.12h.81c.21,0,.36.13.36.34,0,.19-.15.34-.36.34h-.8v-.67h0Z"/>
      <path id="path3072" class="cls-1" d="M25.09,16.47v2.91h.73v-1.03h.31l.87,1.03h.89l-.96-1.07c.39-.03.8-.37.8-.89,0-.61-.48-.94-1.02-.94h-1.62,0ZM25.82,17.12h.83c.2,0,.34.16.34.31,0,.19-.19.31-.33.31h-.84v-.61Z"/>
      <path id="path3074" class="cls-1" d="M30.74,19.38v-.63h1.46c.22,0,.31-.12.31-.24s-.09-.25-.31-.25h-.66c-.57,0-.89-.35-.89-.87,0-.47.29-.92,1.14-.92h1.42l-.31.66h-1.23c-.23,0-.31.12-.31.24s.09.25.27.25h.69c.64,0,.91.36.91.84,0,.51-.31.93-.95.93h-1.55Z"/>
      <path id="path3076" class="cls-1" d="M33.41,19.38v-.63h1.46c.22,0,.31-.12.31-.24s-.09-.25-.31-.25h-.66c-.57,0-.89-.35-.89-.87,0-.47.29-.92,1.14-.92h1.42l-.31.66h-1.23c-.23,0-.31.12-.31.24s.09.25.27.25h.69c.64,0,.91.36.91.84,0,.51-.31.93-.95.93h-1.55Z"/>
    </g>
  </g>
</svg>