<?xml version="1.0" encoding="UTF-8"?>
<svg id="_레이어_2" data-name="레이어 2" xmlns="http://www.w3.org/2000/svg" viewBox="0 0 47 30">
  <defs>
    <style>
      .cls-1 {
        fill: #1a1f71;
      }

      .cls-2 {
        fill: #f9f9f9;
      }
    </style>
  </defs>
  <g id="_레이어_1-2" data-name="레이어 1">
    <rect class="cls-2" width="47" height="30"/>
    <g id="uuid-1f69d188-5957-41ed-9cb6-56403f05b03b" data-name=" 레이어 1-2">
      <g id="g4155">
        <g id="g4161">
          <path id="path4163" class="cls-1" d="M23.31,8.88l-2.62,12.25h-3.17l2.62-12.25h3.17ZM36.64,16.79l1.67-4.6.96,4.6h-2.63ZM40.18,21.13h2.93l-2.56-12.25h-2.7c-.61,0-1.13.35-1.35.9l-4.76,11.35h3.33l.66-1.83h4.06l.38,1.83h0ZM31.9,17.14c.02-3.23-4.47-3.41-4.44-4.86,0-.44.43-.91,1.34-1.03.45-.06,1.7-.11,3.13.55l.56-2.6c-.76-.28-1.74-.54-2.96-.54-3.13,0-5.34,1.66-5.36,4.05-.02,1.76,1.58,2.75,2.77,3.34,1.23.6,1.65.98,1.64,1.52,0,.82-.98,1.18-1.89,1.2-1.59.03-2.52-.43-3.25-.78l-.58,2.69c.74.34,2.11.63,3.52.65,3.33,0,5.51-1.64,5.52-4.19M18.78,8.88l-5.13,12.25h-3.35l-2.53-9.78c-.15-.6-.28-.83-.75-1.08-.76-.42-2.02-.8-3.13-1.04l.08-.36h5.39c.68,0,1.3.46,1.46,1.25l1.34,7.09,3.3-8.34h3.33Z"/>
        </g>
      </g>
    </g>
  </g>
</svg>