<?xml version="1.0" encoding="UTF-8"?>
<svg id="_레이어_2" data-name="레이어 2" xmlns="http://www.w3.org/2000/svg" viewBox="0 0 30.04 10.87">
  <defs>
    <style>
      .cls-1 {
        fill: #016fd0;
      }

      .cls-2 {
        fill: #fff;
      }
    </style>
  </defs>
  <g id="_레이어_1-2" data-name="레이어 1">
    <g id="layer1">
      <path id="path3082" class="cls-2" d="M5.82,10.87v-4.71h4.98l.53.7.55-.7h18.08v4.38s-.47.32-1.02.32h-10.01l-.6-.74v.74h-1.97v-1.27s-.27.18-.85.18h-.67v1.09h-2.99l-.53-.71-.54.71h-4.95Z"/>
      <path id="path3080" class="cls-2" d="M0,2.62L1.12,0h1.94l.64,1.47V0h2.42l.38,1.06.37-1.06h10.84v.53s.57-.53,1.51-.53h3.52s.63,1.46.63,1.46V0h2.02l.56.83v-.83h2.04v4.71h-2.04l-.53-.83v.83h-2.97l-.3-.74h-.8l-.29.74h-2.01c-.81,0-1.32-.52-1.32-.52v.52h-3.04l-.6-.74v.74H2.78l-.3-.74h-.8l-.3.74H0v-2.09Z"/>
      <path id="path3046" class="cls-1" d="M1.52.58L0,4.1h.99l.28-.71h1.63l.28.71h1.01L2.67.58h-1.15ZM2.08,1.4l.5,1.23h-.99l.5-1.23Z"/>
      <path id="path3048" class="cls-1" d="M4.29,4.1V.58h1.4s.82,2.28.82,2.28l.8-2.28h1.39v3.52h-.88V1.51l-.93,2.6h-.77l-.94-2.6v2.6h-.88Z"/>
      <path id="path3050" class="cls-1" d="M9.29,4.1V.58h2.87v.79h-1.98v.6h1.94v.74h-1.94v.63h1.98v.76h-2.87Z"/>
      <path id="path3052" class="cls-1" d="M12.68.58v3.52h.88v-1.25h.37l1.06,1.25h1.08l-1.16-1.3c.48-.04.97-.45.97-1.08,0-.74-.58-1.14-1.23-1.14h-1.96ZM13.56,1.37h1.01c.24,0,.42.19.42.37,0,.23-.23.37-.4.37h-1.02v-.74h0Z"/>
      <path id="path3054" class="cls-1" d="M17.13,4.1h-.9V.58h.9v3.52Z"/>
      <path id="path3056" class="cls-1" d="M19.26,4.1h-.19c-.94,0-1.51-.74-1.51-1.75s.56-1.78,1.75-1.78h.97v.83h-1.01c-.48,0-.82.38-.82.95,0,.68.39.97.95.97h.23l-.37.77Z"/>
      <path id="path3058" class="cls-1" d="M21.18.58l-1.52,3.52h.99l.28-.71h1.63l.28.71h1.01l-1.51-3.52h-1.15ZM21.74,1.4l.5,1.23h-.99l.5-1.23h0Z"/>
      <path id="path3060" class="cls-1" d="M23.94,4.1V.58h1.12l1.43,2.21V.58h.88v3.52h-1.08l-1.47-2.27v2.27h-.88Z"/>
      <path id="path3062" class="cls-1" d="M6.42,10.27v-3.52h2.87v.79h-1.98v.6h1.94v.74h-1.94v.63h1.98v.76h-2.87Z"/>
      <path id="path3064" class="cls-1" d="M20.5,10.27v-3.52h2.87v.79h-1.98v.6h1.93v.74h-1.93v.63h1.98v.76h-2.87Z"/>
      <path id="path3066" class="cls-1" d="M9.41,10.27l1.4-1.74-1.43-1.78h1.11l.85,1.1.86-1.1h1.07l-1.41,1.76,1.4,1.76h-1.11l-.83-1.09-.81,1.09h-1.09Z"/>
      <path id="path3068" class="cls-1" d="M13.35,6.75v3.52h.9v-1.11h.93c.78,0,1.38-.42,1.38-1.23,0-.67-.47-1.18-1.26-1.18h-1.95ZM14.25,7.54h.98c.25,0,.43.16.43.41,0,.24-.18.41-.44.41h-.97v-.81h0Z"/>
      <path id="path3072" class="cls-1" d="M16.94,6.74v3.52h.88v-1.25h.37l1.06,1.25h1.08l-1.16-1.3c.48-.04.97-.45.97-1.08,0-.74-.58-1.14-1.23-1.14h-1.96,0ZM17.82,7.53h1.01c.24,0,.42.19.42.37,0,.23-.23.37-.4.37h-1.02v-.74Z"/>
      <path id="path3074" class="cls-1" d="M23.78,10.27v-.76h1.76c.26,0,.37-.14.37-.3s-.11-.3-.37-.3h-.8c-.69,0-1.08-.42-1.08-1.06,0-.56.35-1.11,1.38-1.11h1.72l-.37.79h-1.48c-.28,0-.37.15-.37.29s.11.31.32.31h.83c.77,0,1.11.44,1.11,1.01,0,.62-.37,1.12-1.15,1.12h-1.88Z"/>
      <path id="path3076" class="cls-1" d="M27.02,10.27v-.76h1.76c.26,0,.37-.14.37-.3s-.11-.3-.37-.3h-.8c-.69,0-1.08-.42-1.08-1.06,0-.56.35-1.11,1.38-1.11h1.72l-.37.79h-1.48c-.28,0-.37.15-.37.29s.11.31.32.31h.83c.77,0,1.11.44,1.11,1.01,0,.62-.37,1.12-1.15,1.12h-1.88Z"/>
    </g>
  </g>
</svg>