<?xml version="1.0" encoding="UTF-8"?>
<svg id="_레이어_2" data-name="레이어 2" xmlns="http://www.w3.org/2000/svg" viewBox="0 0 17.2 14.77">
  <defs>
    <style>
      .cls-1 {
        fill: #004c97;
      }

      .cls-1, .cls-2 {
        fill-rule: evenodd;
      }

      .cls-2 {
        fill: #fefefe;
      }
    </style>
  </defs>
  <g id="_레이어_1-2" data-name="레이어 1">
    <g>
      <path id="path2446" class="cls-1" d="M7.5,14.77c-4.11.02-7.5-3.29-7.5-7.32C0,3.05,3.38,0,7.5,0h1.93c4.06,0,7.77,3.04,7.77,7.45,0,4.03-3.71,7.32-7.77,7.32h-1.93Z"/>
      <path id="path2453" class="cls-1" d="M7.5,14.77c-4.11.02-7.5-3.29-7.5-7.32C0,3.05,3.38,0,7.5,0h.11c4.06,0,7.62,3.04,7.62,7.45,0,4.03-3.56,7.32-7.62,7.32h-.11Z"/>
      <path id="path2457" class="cls-2" d="M7.51.61c-3.76,0-6.8,3.03-6.8,6.76s3.05,6.76,6.8,6.76c3.76,0,6.8-3.03,6.81-6.76,0-3.74-3.05-6.76-6.81-6.76"/>
      <path id="path2459" class="cls-1" d="M5.97,11.37V3.37c-1.62.62-2.76,2.17-2.77,4,0,1.83,1.15,3.38,2.77,4M11.83,7.37c0-1.83-1.15-3.38-2.77-4v8c1.62-.62,2.77-2.17,2.77-4"/>
    </g>
  </g>
</svg>