<?xml version="1.0" encoding="UTF-8"?>
<svg id="_레이어_2" data-name="레이어 2" xmlns="http://www.w3.org/2000/svg" viewBox="0 0 105.13 49.24">
  <defs>
    <style>
      .cls-1 {
        fill: #ea4335;
      }

      .cls-2 {
        fill: #fff;
        stroke: #404040;
        stroke-miterlimit: 10;
      }

      .cls-3 {
        fill: #fbbc04;
      }

      .cls-4 {
        fill: #4285f4;
      }

      .cls-5 {
        fill: #34a853;
      }

      .cls-6 {
        fill: #5f6368;
      }
    </style>
  </defs>
  <g id="_레이어_1-2" data-name="레이어 1">
    <rect class="cls-2" x=".5" y=".5" width="104.13" height="48.24" rx="23.55" ry="23.55"/>
    <g>
      <path class="cls-6" d="M50.38,24.22v9.3h-3V10.52h7.8c1.9,0,3.7.7,5.1,2,1.4,1.2,2.1,3,2.1,4.9s-.7,3.6-2.1,4.9c-1.4,1.3-3.1,2-5.1,2l-4.8-.1h0ZM50.38,13.32v8h5c1.1,0,2.2-.4,2.9-1.2,1.6-1.5,1.6-4,.1-5.5l-.1-.1c-.8-.8-1.8-1.3-2.9-1.2h-5Z"/>
      <path class="cls-6" d="M69.28,17.32c2.2,0,3.9.6,5.2,1.8s1.9,2.8,1.9,4.8v9.6h-2.8v-2.2h-.1c-1.2,1.8-2.9,2.7-4.9,2.7-1.7,0-3.2-.5-4.4-1.5-1.1-1-1.8-2.4-1.8-3.9,0-1.6.6-2.9,1.8-3.9s2.9-1.4,4.9-1.4c1.8,0,3.2.3,4.3,1v-.7c0-1-.4-2-1.2-2.6-.8-.7-1.8-1.1-2.9-1.1-1.7,0-3,.7-3.9,2.1l-2.6-1.6c1.6-2.1,3.7-3.1,6.5-3.1ZM65.48,28.72c0,.8.4,1.5,1,1.9.7.5,1.5.8,2.3.8,1.2,0,2.4-.5,3.3-1.4,1-.9,1.5-2,1.5-3.2-.9-.7-2.2-1.1-3.9-1.1-1.2,0-2.2.3-3,.9-.8.5-1.2,1.2-1.2,2.1Z"/>
      <path class="cls-6" d="M92.58,17.82l-9.9,22.7h-3l3.7-7.9-6.5-14.7h3.2l4.7,11.3h.1l4.6-11.3h3.1v-.1Z"/>
      <path class="cls-4" d="M38.48,22.22c0-.9-.1-1.8-.2-2.7h-12.5v5.1h7.1c-.3,1.6-1.2,3.1-2.6,4v3.3h4.3c2.5-2.3,3.9-5.7,3.9-9.7Z"/>
      <path class="cls-5" d="M25.78,35.12c3.6,0,6.6-1.2,8.8-3.2l-4.3-3.3c-1.2.8-2.7,1.3-4.5,1.3-3.4,0-6.4-2.3-7.4-5.5h-4.4v3.4c2.3,4.5,6.8,7.3,11.8,7.3Z"/>
      <path class="cls-3" d="M18.38,24.42c-.6-1.6-.6-3.4,0-5.1v-3.4h-4.4c-1.9,3.7-1.9,8.1,0,11.9l4.4-3.4Z"/>
      <path class="cls-1" d="M25.78,13.92c1.9,0,3.7.7,5.1,2h0l3.8-3.8c-2.4-2.2-5.6-3.5-8.8-3.4-5,0-9.6,2.8-11.8,7.3l4.4,3.4c.9-3.2,3.9-5.5,7.3-5.5Z"/>
    </g>
  </g>
</svg>