<?xml version="1.0" encoding="UTF-8"?>
<svg id="_레이어_2" data-name="레이어 2" xmlns="http://www.w3.org/2000/svg" viewBox="0 0 87.93 23.43">
  <defs>
    <style>
      .cls-1 {
        fill: #179bd7;
      }

      .cls-2 {
        fill: #253b80;
      }
    </style>
  </defs>
  <g id="Layer_1" data-name="Layer 1">
    <g>
      <path class="cls-2" d="M10.55,0H3.71C3.24,0,2.85.34,2.77.8L0,18.34c-.06.35.21.66.56.66h3.26c.47,0,.87-.34.94-.8l.75-4.73c.07-.46.47-.8.94-.8h2.17c4.51,0,7.1-2.18,7.78-6.5.31-1.89.01-3.38-.87-4.41C14.56.61,12.84,0,10.55,0ZM11.34,6.41c-.37,2.45-2.25,2.45-4.06,2.45h-1.03l.72-4.58c.04-.28.28-.48.56-.48h.47c1.24,0,2.4,0,3,.7.36.42.47,1.04.33,1.91Z"/>
      <path class="cls-2" d="M30.99,6.33h-3.28c-.28,0-.52.2-.56.48l-.15.92-.23-.33c-.71-1.03-2.29-1.37-3.87-1.37-3.62,0-6.71,2.74-7.31,6.59-.31,1.92.13,3.75,1.22,5.03,1,1.18,2.43,1.67,4.12,1.67,2.92,0,4.53-1.88,4.53-1.88l-.15.91c-.06.35.21.66.56.66h2.95c.47,0,.86-.34.94-.8l1.77-11.21c.06-.35-.21-.66-.56-.66ZM26.43,12.7c-.32,1.87-1.8,3.13-3.69,3.13-.95,0-1.71-.31-2.2-.88-.48-.57-.67-1.39-.51-2.3.29-1.85,1.81-3.15,3.67-3.15.93,0,1.69.31,2.18.89.5.59.7,1.41.55,2.32Z"/>
      <path class="cls-2" d="M48.44,6.33h-3.29c-.31,0-.61.16-.79.42l-4.54,6.69-1.92-6.43c-.12-.4-.49-.68-.91-.68h-3.23c-.39,0-.67.38-.54.75l3.62,10.64-3.41,4.81c-.27.38,0,.9.46.9h3.29c.31,0,.6-.15.78-.41l10.95-15.8c.26-.38,0-.9-.47-.9Z"/>
      <path class="cls-1" d="M59.33,0h-6.84c-.47,0-.86.34-.94.8l-2.77,17.54c-.06.35.21.66.56.66h3.51c.33,0,.61-.24.66-.56l.79-4.97c.07-.46.47-.8.94-.8h2.16c4.51,0,7.11-2.18,7.78-6.5.31-1.89.01-3.38-.87-4.41C63.34.61,61.62,0,59.33,0ZM60.12,6.41c-.37,2.45-2.25,2.45-4.06,2.45h-1.03l.72-4.58c.04-.28.28-.48.56-.48h.47c1.23,0,2.4,0,3,.7.36.42.47,1.04.33,1.91Z"/>
      <path class="cls-1" d="M79.77,6.33h-3.27c-.28,0-.52.2-.56.48l-.14.92-.23-.33c-.71-1.03-2.29-1.37-3.87-1.37-3.62,0-6.71,2.74-7.31,6.59-.31,1.92.13,3.75,1.22,5.03,1,1.18,2.43,1.67,4.12,1.67,2.92,0,4.53-1.88,4.53-1.88l-.15.91c-.06.35.21.66.56.66h2.95c.47,0,.86-.34.94-.8l1.77-11.21c.05-.35-.21-.66-.57-.66ZM75.21,12.7c-.31,1.87-1.8,3.13-3.69,3.13-.95,0-1.71-.31-2.2-.88-.48-.57-.67-1.39-.51-2.3.3-1.85,1.81-3.15,3.67-3.15.93,0,1.69.31,2.18.89.5.59.7,1.41.55,2.32Z"/>
      <path class="cls-1" d="M83.64.48l-2.81,17.86c-.06.35.21.66.56.66h2.82c.47,0,.87-.34.94-.8l2.77-17.54c.06-.35-.21-.66-.56-.66h-3.16c-.28,0-.52.21-.56.48Z"/>
    </g>
  </g>
</svg>